<svg width="109" height="24" viewBox="0 0 109 24" fill="none" xmlns="http://www.w3.org/2000/svg">
<path d="M0.92 0.599998C1.368 0.535999 1.86933 0.482666 2.424 0.439999C3 0.397333 3.58667 0.365333 4.184 0.344C4.78133 0.322666 5.35733 0.311998 5.912 0.311998C6.488 0.290665 7 0.279999 7.448 0.279999C9.432 0.279999 11.128 0.557332 12.536 1.112C13.944 1.66667 15.0853 2.44533 15.96 3.448C16.8347 4.45067 17.4747 5.64533 17.88 7.032C18.2853 8.41867 18.488 9.944 18.488 11.608C18.488 13.1227 18.296 14.584 17.912 15.992C17.528 17.4 16.888 18.648 15.992 19.736C15.096 20.824 13.912 21.6987 12.44 22.36C10.9893 23.0213 9.18667 23.352 7.032 23.352C6.69067 23.352 6.232 23.3413 5.656 23.32C5.10133 23.2987 4.51467 23.2667 3.896 23.224C3.29867 23.2027 2.72267 23.1707 2.168 23.128C1.61333 23.1067 1.19733 23.0747 0.92 23.032V0.599998ZM7.8 4.184C7.33067 4.184 6.85067 4.19467 6.36 4.216C5.89067 4.23733 5.53867 4.26933 5.304 4.312V19.32C5.38933 19.3413 5.528 19.3627 5.72 19.384C5.93333 19.384 6.15733 19.3947 6.392 19.416C6.62667 19.416 6.85067 19.4267 7.064 19.448C7.27733 19.448 7.43733 19.448 7.544 19.448C8.78133 19.448 9.80533 19.2347 10.616 18.808C11.448 18.36 12.0987 17.7733 12.568 17.048C13.0587 16.3227 13.4 15.4907 13.592 14.552C13.784 13.592 13.88 12.6107 13.88 11.608C13.88 10.7333 13.7947 9.85867 13.624 8.984C13.4533 8.088 13.1333 7.288 12.664 6.584C12.216 5.88 11.5973 5.304 10.808 4.856C10.0187 4.408 9.016 4.184 7.8 4.184ZM20.9348 11.8C20.9348 8.06667 21.7561 5.19733 23.3988 3.192C25.0414 1.16533 27.3881 0.151999 30.4388 0.151999C32.0388 0.151999 33.4361 0.429332 34.6308 0.983999C35.8254 1.53867 36.8174 2.328 37.6068 3.352C38.3961 4.376 38.9828 5.60267 39.3668 7.032C39.7508 8.46133 39.9428 10.0507 39.9428 11.8C39.9428 15.5333 39.1108 18.4133 37.4468 20.44C35.8041 22.4453 33.4681 23.448 30.4388 23.448C28.8174 23.448 27.4094 23.1707 26.2148 22.616C25.0201 22.0613 24.0281 21.272 23.2388 20.248C22.4708 19.224 21.8948 17.9973 21.5108 16.568C21.1268 15.1387 20.9348 13.5493 20.9348 11.8ZM25.5428 11.8C25.5428 12.9307 25.6388 13.976 25.8308 14.936C26.0228 15.8747 26.3108 16.6853 26.6948 17.368C27.1001 18.0507 27.6121 18.584 28.2308 18.968C28.8494 19.352 29.5854 19.544 30.4388 19.544C31.9961 19.544 33.2014 18.936 34.0548 17.72C34.9081 16.504 35.3348 14.5307 35.3348 11.8C35.3348 10.712 35.2388 9.69867 35.0468 8.76C34.8761 7.82133 34.5988 7 34.2148 6.296C33.8308 5.592 33.3294 5.048 32.7108 4.664C32.0921 4.25867 31.3348 4.056 30.4388 4.056C28.8814 4.056 27.6761 4.68533 26.8228 5.944C25.9694 7.18133 25.5428 9.13333 25.5428 11.8ZM58.2443 22.072C57.5616 22.5627 56.6869 22.9147 55.6203 23.128C54.5749 23.3413 53.4976 23.448 52.3883 23.448C51.0443 23.448 49.7643 23.2453 48.5483 22.84C47.3536 22.4133 46.2976 21.7413 45.3802 20.824C44.4629 19.8853 43.7269 18.68 43.1723 17.208C42.6389 15.7147 42.3723 13.912 42.3723 11.8C42.3723 9.60267 42.6709 7.768 43.2682 6.296C43.8869 4.80267 44.6763 3.608 45.6363 2.712C46.6176 1.79467 47.7056 1.144 48.9003 0.759998C50.0949 0.354665 51.2896 0.151999 52.4843 0.151999C53.7643 0.151999 54.8416 0.237332 55.7163 0.407999C56.6123 0.578666 57.3483 0.781333 57.9243 1.016L57.0603 4.728C56.5696 4.49333 55.9829 4.32267 55.3003 4.216C54.6389 4.10933 53.8283 4.056 52.8683 4.056C51.0976 4.056 49.6683 4.68533 48.5803 5.944C47.5136 7.20267 46.9803 9.15467 46.9803 11.8C46.9803 12.952 47.1083 14.008 47.3643 14.968C47.6203 15.9067 48.0043 16.7173 48.5163 17.4C49.0496 18.0613 49.7003 18.584 50.4683 18.968C51.2576 19.3307 52.1643 19.512 53.1883 19.512C54.1483 19.512 54.9589 19.416 55.6203 19.224C56.2816 19.032 56.8576 18.7867 57.3483 18.488L58.2443 22.072ZM75.1273 23H60.9513V0.599998H65.3353V19.096H75.1273V23ZM84.5225 18.04H77.6425L75.9465 23H71.5625L79.6265 0.439999H82.8585L90.9225 23H86.3145L84.5225 18.04ZM78.7625 14.52H83.5625L81.8985 9.528L81.2265 6.008H81.0665L80.3945 9.56L78.7625 14.52ZM107.93 5.816C107.93 6.37067 107.855 6.92533 107.706 7.48C107.578 8.03467 107.354 8.54667 107.034 9.016C106.714 9.464 106.298 9.86933 105.786 10.232C105.274 10.5733 104.655 10.8293 103.93 11V11.192C104.57 11.2987 105.178 11.48 105.754 11.736C106.33 11.992 106.831 12.344 107.258 12.792C107.684 13.24 108.015 13.784 108.25 14.424C108.506 15.064 108.634 15.8213 108.634 16.696C108.634 17.848 108.388 18.8507 107.898 19.704C107.407 20.536 106.746 21.2187 105.914 21.752C105.103 22.2853 104.175 22.68 103.13 22.936C102.084 23.192 101.007 23.32 99.8975 23.32C99.5348 23.32 99.0655 23.32 98.4895 23.32C97.9348 23.32 97.3268 23.2987 96.6655 23.256C96.0255 23.2347 95.3642 23.192 94.6815 23.128C94.0202 23.064 93.4122 22.968 92.8575 22.84V0.759998C93.2628 0.695999 93.7215 0.631999 94.2335 0.567999C94.7668 0.503998 95.3322 0.450665 95.9295 0.407999C96.5268 0.365333 97.1348 0.333333 97.7535 0.311998C98.3935 0.290665 99.0228 0.279999 99.6415 0.279999C100.687 0.279999 101.7 0.365332 102.682 0.535999C103.684 0.685332 104.57 0.962665 105.338 1.368C106.127 1.77333 106.756 2.33867 107.226 3.064C107.695 3.78933 107.93 4.70667 107.93 5.816ZM99.9295 19.704C100.463 19.704 100.975 19.64 101.466 19.512C101.978 19.384 102.426 19.192 102.81 18.936C103.194 18.6587 103.503 18.3173 103.738 17.912C103.972 17.5067 104.09 17.0267 104.09 16.472C104.09 15.768 103.951 15.2133 103.674 14.808C103.396 14.4027 103.034 14.0933 102.586 13.88C102.138 13.6453 101.636 13.496 101.082 13.432C100.527 13.368 99.9722 13.336 99.4175 13.336H97.0815V19.512C97.1882 19.5547 97.3588 19.5867 97.5935 19.608C97.8282 19.6293 98.0735 19.6507 98.3295 19.672C98.6068 19.672 98.8842 19.6827 99.1615 19.704C99.4602 19.704 99.7162 19.704 99.9295 19.704ZM98.4895 10.008C98.7882 10.008 99.1295 9.99733 99.5135 9.976C99.9188 9.95467 100.25 9.92267 100.506 9.88C101.316 9.624 102.01 9.24 102.586 8.728C103.183 8.216 103.482 7.544 103.482 6.712C103.482 6.15733 103.375 5.69867 103.162 5.336C102.948 4.97333 102.66 4.68533 102.298 4.472C101.956 4.25867 101.562 4.10933 101.114 4.024C100.666 3.93867 100.196 3.896 99.7055 3.896C99.1508 3.896 98.6388 3.90667 98.1695 3.928C97.7002 3.94933 97.3375 3.98133 97.0815 4.024V10.008H98.4895Z" fill="#512D6D"/>
</svg>
