<svg width="118" height="67" viewBox="0 0 118 67" fill="none" xmlns="http://www.w3.org/2000/svg">
<g clip-path="url(#clip0_1041_7108)">
<path d="M83.269 31.7266L83.2691 31.7245C83.2842 28.164 84.7112 24.755 87.2369 22.2454C89.7627 19.7358 93.1808 18.3307 96.7413 18.3383L96.7434 18.3383C99.4201 18.3327 102.038 19.1228 104.265 20.6082C106.492 22.0936 108.227 24.2073 109.25 26.6809C110.273 29.1544 110.537 31.8762 110.01 34.5005C109.483 37.1248 108.188 39.5332 106.289 41.4199C104.39 43.3065 101.974 44.5863 99.346 45.0966C96.7183 45.607 93.9983 45.3248 91.5314 44.286C89.0644 43.2473 86.9619 41.4987 85.4907 39.2625C84.0196 37.0263 83.2463 34.4033 83.269 31.7266ZM96.7424 17.8384L96.7424 17.8383L96.7424 17.8384Z" fill="#9CBFF5" stroke="black"/>
<path d="M98.4066 53.6634L100.012 64.3069H101.974L104.947 48.4606H88.5361L91.5092 64.3069H93.4417L95.1363 53.6634L93.5308 50.6904H99.9229L98.3174 53.6634H98.4066Z" fill="white"/>
<path d="M7.75342 31.7266L7.75342 31.7256C7.77616 28.1622 9.20963 24.7529 11.7401 22.244C14.2706 19.735 17.6919 18.3306 21.2554 18.3383L21.2564 18.3383C23.932 18.3384 26.5471 19.1333 28.7701 20.6222C30.9931 22.111 32.7236 24.2267 33.7422 26.7008C34.7608 29.1748 35.0214 31.8957 34.491 34.5181C33.9606 37.1405 32.6632 39.5462 30.7632 41.43C28.8633 43.3138 26.4466 44.5907 23.8198 45.0987C21.1929 45.6067 18.4744 45.3229 16.0091 44.2833C13.5438 43.2437 11.443 41.4951 9.97313 39.2595C8.50328 37.0239 7.73069 34.4021 7.75342 31.7266Z" fill="#9CBFF5" stroke="black"/>
<path d="M117.499 60.1743V66.0664H90.6245C90.487 63.1608 89.7355 60.3154 88.4175 57.7183L87.4716 57.9445V66.0664H30.527V58.0337L29.5797 57.8104C28.295 60.384 27.5645 63.1965 27.4329 66.0664H0.499326L0.499338 60.1743L0.499315 60.1709C0.487998 58.5037 0.806611 56.8507 1.4368 55.3071C2.067 53.7636 2.99632 52.3599 4.17126 51.177C5.3462 49.9941 6.74354 49.0553 8.28282 48.4147C9.82209 47.774 11.4729 47.4442 13.1402 47.4443H29.342C30.6127 47.451 31.8749 47.6534 33.0841 48.0444L33.4365 48.1583L33.6482 47.8544C35.253 45.551 37.3932 43.6717 39.8848 42.3781C42.3764 41.0845 45.1449 40.4152 47.9522 40.4279H47.9545L69.8955 40.4279L69.9002 40.4279C72.7396 40.4013 75.5422 41.0725 78.0615 42.3826C80.5808 43.6926 82.7398 45.6014 84.3487 47.9411L84.5595 48.2477L84.9137 48.1338C86.1238 47.7449 87.3861 47.5424 88.6572 47.5335H104.858C106.519 47.5335 108.162 47.8604 109.696 48.4957C111.23 49.131 112.623 50.0621 113.797 51.2359C114.971 52.4097 115.902 53.8032 116.537 55.3369C117.172 56.8705 117.499 58.5143 117.499 60.1743ZM105.469 48.523L105.58 47.9308H104.977H89.4284H88.6257H88.0231L88.1343 48.523L91.1073 64.3693L91.1838 64.7771H91.5987H93.5312H93.9603L94.0254 64.353L95.6606 53.7096L95.6861 53.5437L95.6063 53.3961L94.3992 51.1606H99.2039L97.9968 53.3961L97.9174 53.543L97.9423 53.7082L99.5478 64.3517L99.6119 64.7771H100.042H102.004H102.419L102.496 64.3693L105.469 48.523ZM70.7136 41.9247L70.8274 41.3306H70.2226H69.0036H48.995H47.7761H47.1713L47.285 41.9247L51.4175 63.509L51.4953 63.9149H51.9086H66.09H66.5034L66.5811 63.509L70.7136 41.9247ZM26.4594 64.8068H26.8728L26.9505 64.4008L29.983 48.5545L30.0967 47.9605H29.4919H13.0807H12.4782L12.5893 48.5527L15.5623 64.399L15.6388 64.8068H16.0538H18.0457H18.4759L18.5401 64.3814L20.1455 53.7379L20.1701 53.5749L20.0929 53.4292L18.9063 51.1903H23.6589L22.4518 53.4258L22.3721 53.5734L22.3975 53.7393L24.0327 64.3828L24.0979 64.8068H24.5269H26.4594Z" fill="#9CBFF5" stroke="black"/>
<path d="M22.892 53.6634L24.5272 64.3069H26.4596L29.4327 48.4606H13.0215L15.9945 64.3069H17.927L19.5324 53.6634L17.9567 50.6904H24.438L22.8325 53.6634H22.892Z" fill="white"/>
<path d="M40.4278 19.058V19.0572C40.4278 16.6178 40.9087 14.2023 41.8431 11.949C42.7775 9.69564 44.147 7.64863 45.8733 5.92505C47.5995 4.20148 49.6487 2.83517 51.9035 1.90429C54.1583 0.973405 56.5745 0.496217 59.0139 0.500023H59.0147C62.6921 0.500028 66.2868 1.59087 69.344 3.63451C72.4013 5.67815 74.7836 8.58274 76.1895 11.9807C77.5955 15.3787 77.9618 19.1174 77.2423 22.7237C76.5228 26.33 74.7497 29.6419 72.1474 32.2401C69.545 34.8384 66.2304 36.6063 62.623 37.3203C59.0156 38.0342 55.2775 37.6619 51.8817 36.2507C48.4859 34.8395 45.585 32.4526 43.5461 29.3922C41.5073 26.3318 40.422 22.7354 40.4278 19.058Z" fill="#9CBFF5" stroke="black"/>
<path d="M61.2442 48.966L63.474 63.4744H66.0903L70.2228 41.8901H69.0039H48.9953H47.7764L51.9089 63.4744H54.5549L56.755 48.966L54.5846 44.9821H63.2659L61.0956 48.966H61.2442Z" fill="white"/>
<path d="M55.136 63.0042L57.1848 49.4661H57.6857L57.283 48.7269L55.5154 45.4822H62.5131L60.7455 48.7269L60.3428 49.4661H60.814L62.8627 63.0042H55.136Z" fill="#9CBFF5" stroke="black"/>
</g>
<defs>
<clipPath id="clip0_1041_7108">
<rect width="118" height="66.5664" fill="white"/>
</clipPath>
</defs>
</svg>
