<svg width="65" height="79" viewBox="0 0 65 79" fill="none" xmlns="http://www.w3.org/2000/svg">
<path d="M16.4435 53.3032L16.4431 53.3027C9.22829 43.9933 4.24827 34.2129 1.94757 25.8215C0.797136 21.6255 0.321558 17.7948 0.559831 14.5534C0.797129 11.3253 1.73901 8.71632 3.38905 6.89535L4.19235 6.22467L4.20066 6.21773L4.20866 6.21044L4.56902 5.88208L5.22203 5.32267L5.39673 5.173V5.07789L6.37539 4.40594L6.39369 4.39337L6.41081 4.37923L6.75242 4.09704L6.75246 4.09708L6.75835 4.09206L7.57532 3.39563C8.67445 3.12969 10.1251 3.67899 11.7506 4.96365C13.3941 6.26248 15.0868 8.21371 16.5468 10.4055C18.0058 12.5957 19.2147 14.9994 19.9061 17.1875C20.5867 19.3414 20.7338 21.1855 20.2448 22.4175L19.4581 23.0837L19.458 23.0836L19.4489 23.0917L18.5014 23.9347L18.0227 24.3421L17.763 24.5013L17.7264 24.5238L17.6941 24.5522C17.0302 25.1362 16.569 25.867 16.3731 26.6008C16.178 27.3319 16.2382 28.1134 16.6992 28.7193L16.6992 28.7193L16.702 28.7229L18.5321 31.0831L18.5626 31.1225L18.6003 31.1551C22.4855 34.5124 26.004 38.314 29.0907 42.49L29.097 42.4986L29.1038 42.507C32.3626 46.543 35.1907 50.9432 37.5372 55.6287L37.5595 55.6731L37.59 55.7123L39.3713 57.9955L39.3964 58.0277L39.4263 58.0553C40.0103 58.5946 40.7792 58.8723 41.5647 58.8196C42.3368 58.7678 43.0526 58.4016 43.5631 57.809L44.2676 57.1918L44.2895 57.1726L44.3091 57.151L44.7507 56.6622L45.745 55.8159C45.7458 55.8152 45.7466 55.8145 45.7475 55.8138C46.0157 55.5939 46.4592 55.4914 47.1322 55.6052C47.8005 55.7183 48.6163 56.034 49.5233 56.5357C51.3334 57.537 53.4109 59.2254 55.2421 61.2612C57.074 63.2977 58.6318 65.651 59.4344 67.9682C60.2282 70.2597 60.2672 72.459 59.1856 74.3031L58.7984 74.6649L58.7967 74.6665C58.6358 74.8183 58.4603 74.9511 58.2733 75.0628L58.2034 75.1045L58.1504 75.1663C58.02 75.3182 57.8791 75.4595 57.729 75.589L56.9973 76.1349C52.9288 78.8321 46.4863 77.9141 39.1049 73.8264C31.7594 69.7586 23.6589 62.6389 16.4435 53.3032Z" fill="#9CBFF5" stroke="black"/>
<path d="M21.6305 6.1984L21.6306 6.1983C19.6707 3.66311 17.2398 1.9681 14.9163 1.25571C12.5987 0.545166 10.4355 0.819831 8.89341 2.13234L8.65507 2.36288C9.87148 2.5197 11.1531 3.21635 12.3723 4.1779C14.1238 5.55929 15.8875 7.59616 17.3935 9.84041C18.9006 12.0863 20.1673 14.5665 20.9099 16.8501C21.4237 18.43 21.7043 19.9694 21.5998 21.286L22.8232 20.2384L21.6305 6.1984ZM21.6305 6.1984L21.6387 6.20842M21.6305 6.1984L21.6387 6.20842M21.6387 6.20842C21.8547 6.47339 22.0396 6.7495 22.2332 7.03849C22.2851 7.1159 22.3375 7.19424 22.3914 7.27354M21.6387 6.20842L22.3914 7.27354M22.3914 7.27354C23.9928 9.70662 24.8358 12.3422 24.9029 14.6774C24.9701 17.0164 24.2616 19.0051 22.8235 20.2382L22.3914 7.27354Z" fill="#9CBFF5" stroke="black"/>
<path d="M47.3959 54.517C47.3452 54.5084 47.2945 54.5007 47.2439 54.4938L48.4845 53.4243C48.4846 53.4242 48.4847 53.4241 48.4849 53.424C49.9303 52.183 51.9103 51.8593 54.0522 52.3948C56.1963 52.931 58.4672 54.3246 60.4009 56.4564C60.6948 56.7911 60.9736 57.1092 61.2275 57.449L61.2274 57.449L61.2331 57.4564C63.192 59.9777 64.279 62.8293 64.4692 65.3833C64.6599 67.943 63.9505 70.143 62.4009 71.4697L62.3995 71.4708L60.9236 72.7433C61.3062 71.0728 61.0821 69.2876 60.4763 67.5387C59.6166 65.0569 57.9717 62.5905 56.0825 60.4902C54.1927 58.3893 52.0305 56.624 50.1042 55.5585C49.143 55.0268 48.2165 54.6559 47.3959 54.517Z" fill="#9CBFF5" stroke="black"/>
</svg>
