<svg width="97" height="111" viewBox="0 0 97 111" fill="none" xmlns="http://www.w3.org/2000/svg">
<g clip-path="url(#clip0_1041_7104)">
<path d="M40.1828 40.0441H39.9746L39.828 40.1918L31.6255 48.454L32.3353 40.589L32.3845 40.0441H31.8373H6.76746H6.7525L6.73757 40.045C5.33514 40.1289 3.95608 39.657 2.8991 38.7315C1.84658 37.8098 1.19782 36.5122 1.0918 35.1176V5.71039C1.18969 4.31308 1.83596 3.01082 2.8901 2.08773C3.94835 1.16106 5.33112 0.692274 6.73474 0.784343L6.75108 0.785415H6.76746H69.125H69.1414L69.1577 0.784343C69.8508 0.73887 70.546 0.830702 71.2034 1.05457C71.8609 1.27844 72.4677 1.62993 72.9889 2.08888C73.5102 2.54784 73.9357 3.10521 74.2411 3.72902C74.5442 4.34833 74.723 5.02101 74.7673 5.70899V35.119C74.6692 36.5107 74.0273 37.8081 72.9798 38.7303C71.9283 39.6561 70.5534 40.1287 69.1549 40.045L69.1399 40.0441H69.125H40.1828ZM11.6746 10.2006H11.1746V10.7006V13.8051V14.3051H11.6746H64.1845H64.6844V13.8051V10.7006V10.2006H64.1845H11.6746ZM11.6746 18.012H11.1746V18.512V21.6165V22.1165H11.6746H64.1845H64.6844V21.6165V18.512V18.012H64.1845H11.6746ZM11.1746 29.4279V29.9279H11.6746H38.3802H38.8802V29.4279V26.3234V25.8234H38.3802H11.6746H11.1746V26.3234V29.4279Z" fill="#9CBFF5" stroke="black"/>
<path d="M80.2117 53.3508L80.6889 57.6706L75.9558 52.91L75.8092 52.7626H75.6012H56.5735H56.5588L56.5442 52.7634C55.7212 52.8117 54.9118 52.5376 54.2874 51.9994C53.6685 51.4658 53.2795 50.7141 53.2012 49.9012V43.314H71.3788C73.1592 43.4281 74.9131 42.8354 76.2595 41.664C77.6101 40.489 78.4408 38.8272 78.5702 37.0417L78.5715 37.0236V37.0055V27.057H92.2588H92.2734L92.288 27.0561C93.1067 27.0083 93.9116 27.2828 94.5305 27.821C95.1445 28.3549 95.527 29.1061 95.5977 29.9162V49.9039C95.527 50.7336 95.1328 51.5025 94.4998 52.0443C93.862 52.5903 93.0337 52.8611 92.1966 52.7974L92.1777 52.7959H92.1587H80.7086H80.1504L80.2117 53.3508Z" fill="#9CBFF5" stroke="black"/>
<path d="M12.5334 77.8472C10.7543 75.1846 9.80469 72.0543 9.80469 68.852C9.80469 64.5579 11.5105 60.4396 14.5469 57.4032C17.5833 54.3668 21.7016 52.661 25.9957 52.661C29.1979 52.661 32.3283 53.6106 34.9909 55.3897C37.6535 57.1688 39.7287 59.6975 40.9542 62.656C42.1797 65.6145 42.5003 68.87 41.8756 72.0107C41.2508 75.1514 39.7088 78.0364 37.4444 80.3008C35.1801 82.5651 32.2951 84.1071 29.1544 84.7319C26.0136 85.3566 22.7582 85.036 19.7997 83.8105C16.8411 82.5851 14.3124 80.5098 12.5334 77.8472Z" fill="#9CBFF5" stroke="black"/>
<path d="M32.4048 108.542H32.8184L32.8959 108.136L36.5346 89.075L36.6479 88.4812H36.0434H34.9752H17.3162H16.2479H15.6382L15.7576 89.0791L19.5632 108.14L19.6434 108.542H20.0535H22.3902H32.4048ZM5.57982 92.2334C8.45345 89.3598 12.3509 87.7454 16.4149 87.7454H35.8765C39.9405 87.7454 43.8379 89.3598 46.7116 92.2334C49.5852 95.107 51.1996 99.0045 51.1996 103.068V110.246H1.0918V103.068C1.0918 99.0045 2.70619 95.107 5.57982 92.2334Z" fill="#9CBFF5" stroke="black"/>
<path d="M22.8048 107.542L24.5899 95.7237H25.0669L24.666 94.9852L23.1641 92.2186H29.1279L27.626 94.9852L27.2251 95.7237H27.7021L29.4872 107.542H22.8048Z" fill="#9CBFF5" stroke="black"/>
<path d="M64.1846 10.7006H11.6748V13.8051H64.1846V10.7006Z" fill="white"/>
<path d="M64.1846 18.512H11.6748V21.6165H64.1846V18.512Z" fill="white"/>
<path d="M38.5139 26.3234H11.6748V29.4279H38.5139V26.3234Z" fill="white"/>
<path d="M74.4484 64.211L74.4594 64.2106L74.4704 64.2098C76.2376 64.0769 78.0131 64.3108 79.6855 64.897C81.3579 65.4831 82.891 66.4087 84.1885 67.6157C85.4861 68.8227 86.52 70.285 87.2253 71.9107C87.9306 73.5364 88.2922 75.2905 88.2872 77.0626V77.064V77.3978V84.6624C88.2244 85.9246 88.5323 87.1778 89.1732 88.2673C89.6151 89.0185 90.2019 89.6692 90.8953 90.1838H75.2675H75.2597L75.252 90.1841C71.8078 90.2906 68.4622 89.0246 65.9514 86.6645C63.4406 84.3044 61.9702 81.0436 61.8636 77.5993C61.7571 74.1551 63.0231 70.8096 65.3832 68.2988C67.7433 65.788 71.0041 64.3175 74.4484 64.211Z" fill="#9CBFF5" stroke="black"/>
<path d="M77.8824 99.3972H77.3187L77.7443 99.801L75.1729 107.316L70.6008 93.6299L70.3812 92.9724L69.8266 93.3883L70.1266 93.7883C69.8266 93.3883 69.8265 93.3884 69.8265 93.3884L69.8263 93.3885L69.8259 93.3888L69.8243 93.3901L69.8184 93.3945L69.7962 93.4112C69.777 93.4258 69.7492 93.447 69.7139 93.474C69.6434 93.528 69.5431 93.6054 69.4235 93.6995C69.1848 93.8874 68.8665 94.1439 68.552 94.4156C68.2407 94.6846 67.9199 94.9797 67.6839 95.2433C67.5677 95.3731 67.4553 95.5136 67.3761 95.6522C67.3365 95.7216 67.2948 95.8084 67.2704 95.9064C67.2464 96.0028 67.2298 96.1485 67.2898 96.3046C67.3285 96.4053 67.3937 96.4933 67.4332 96.5445C67.482 96.6078 67.5418 96.677 67.6068 96.7484C67.7375 96.8919 67.9092 97.0658 68.1036 97.2555C68.4936 97.6359 68.9945 98.0987 69.4862 98.5444C69.9787 98.9908 70.4656 99.4232 70.8291 99.7438C70.8984 99.805 70.9633 99.8621 71.0228 99.9144L68.8454 102.007L68.4975 102.341L68.8193 102.701L74.7947 109.377L74.8147 109.4L75.0976 110.246H55.2041V104.604C55.2041 101.378 56.4835 98.2834 58.7617 95.9992C61.0398 93.7151 64.1306 92.4276 67.3565 92.4189H83.0788C86.3105 92.4189 89.4098 93.7027 91.695 95.9879C93.9801 98.273 95.2639 101.372 95.2639 104.604V110.246H75.2272L75.5151 109.405L75.5389 109.378L81.5477 102.702L81.8735 102.34L81.5201 102.005L79.3615 99.9569C79.4294 99.8968 79.5054 99.8296 79.5879 99.7564C79.9411 99.443 80.4155 99.0188 80.8998 98.5764C81.3834 98.1348 81.88 97.6719 82.2762 97.2821C82.474 97.0876 82.6506 96.9073 82.7895 96.7548C82.915 96.617 83.0487 96.4605 83.1201 96.3256C83.2607 96.06 83.1922 95.7939 83.1247 95.6339C83.0535 95.4653 82.9396 95.3057 82.8237 95.1668C82.5886 94.885 82.2585 94.5872 81.9408 94.3249C81.6185 94.0589 81.2887 93.813 81.0411 93.6346C80.9169 93.5451 80.8124 93.4719 80.7387 93.4209C80.7018 93.3954 80.6726 93.3754 80.6523 93.3616L80.6289 93.3457L80.6226 93.3415L80.6208 93.3403L80.6203 93.3399L80.6201 93.3398C80.6201 93.3398 80.62 93.3397 80.3415 93.755L80.62 93.3397L80.0792 92.9769L79.8684 93.5931L77.8824 99.3972Z" fill="#9CBFF5" stroke="black"/>
<path d="M75.2674 108.877L70.2267 93.7549C70.2267 93.7549 67.5561 95.5241 67.8566 96.0916C68.157 96.6591 71.8624 99.8638 71.8624 99.8638L69.292 102.334L75.2674 108.877Z" fill="white"/>
<path d="M82.6784 96.1251C82.9788 95.5576 80.3416 93.7883 80.3416 93.7883L75.2676 108.877L81.2763 102.201L78.6725 99.7303C78.6725 99.7303 82.5115 96.4255 82.6784 96.1251Z" fill="white"/>
</g>
<defs>
<clipPath id="clip0_1041_7104">
<rect width="95.5058" height="110.461" fill="white" transform="translate(0.591797 0.2854)"/>
</clipPath>
</defs>
</svg>
