<svg width="71" height="97" viewBox="0 0 71 97" fill="none" xmlns="http://www.w3.org/2000/svg">
<g clip-path="url(#clip0_1041_7092)">
<g filter="url(#filter0_dii_1041_7092)">
<path d="M52.558 0H18.9756C18.2768 0 17.6067 0.293688 17.1127 0.816457C16.6186 1.33923 16.341 2.04825 16.341 2.78756V4.90469H2.66792C1.96034 4.90469 1.28175 5.2021 0.781415 5.73148C0.281084 6.26087 0 6.97887 0 7.72754L0 94.1772C0 94.9258 0.281084 95.6438 0.781415 96.1732C1.28175 96.7026 1.96034 97 2.66792 97H68.3321C69.0397 97 69.7183 96.7026 70.2186 96.1732C70.7189 95.6438 71 94.9258 71 94.1772V7.72754C71 6.97887 70.7189 6.26087 70.2186 5.73148C69.7183 5.2021 69.0397 4.90469 68.3321 4.90469H55.1926V2.78756C55.1926 2.42149 55.1244 2.05901 54.992 1.72081C54.8596 1.3826 54.6656 1.07531 54.4209 0.816457C54.1763 0.557608 53.8859 0.352278 53.5662 0.21219C53.2466 0.0721024 52.904 0 52.558 0ZM21.6101 8.32739H50.0235V16.5489H21.6101V8.32739ZM63.7633 11.5737V89.8017H7.50352V11.5737H16.341V19.3365C16.341 19.7009 16.4093 20.0617 16.5422 20.3979C16.675 20.7342 16.8695 21.0392 17.1146 21.2952C17.3597 21.5513 17.6504 21.7532 17.9699 21.8895C18.2893 22.0257 18.6312 22.0934 18.9756 22.0888H52.558C52.9024 22.0934 53.2442 22.0257 53.5637 21.8895C53.8832 21.7532 54.1739 21.5513 54.4189 21.2952C54.664 21.0392 54.8586 20.7342 54.9914 20.3979C55.1242 20.0617 55.1926 19.7009 55.1926 19.3365V11.5737H63.7633Z" fill="#9CBFF5"/>
<path d="M16.341 5.40469H16.841V4.90469V2.78756C16.841 2.17204 17.0724 1.58701 17.476 1.1599C17.8788 0.73374 18.4189 0.5 18.9756 0.5H52.558C52.8343 0.5 53.1086 0.557536 53.3655 0.67014C53.6225 0.782779 53.8579 0.948704 54.0575 1.1599C54.2572 1.37115 54.417 1.62345 54.5264 1.90308C54.6359 2.18273 54.6926 2.48336 54.6926 2.78756V4.90469V5.40469H55.1926H68.3321C68.8976 5.40469 69.4462 5.64215 69.8552 6.07493C70.2651 6.50866 70.5 7.10266 70.5 7.72754V94.1772C70.5 94.802 70.2651 95.396 69.8552 95.8298C69.4462 96.2625 68.8977 96.5 68.3321 96.5H2.66792C2.10235 96.5 1.55382 96.2625 1.1448 95.8298C0.734871 95.396 0.5 94.802 0.5 94.1772V7.72754C0.5 7.10266 0.734872 6.50866 1.1448 6.07493C1.55382 5.64215 2.10235 5.40469 2.66792 5.40469H16.341ZM21.6101 7.82739H21.1101V8.32739V16.5489V17.0489H21.6101H50.0235H50.5235V16.5489V8.32739V7.82739H50.0235H21.6101ZM64.2633 11.5737V11.0737H63.7633H55.1926H54.6926V11.5737V19.3365C54.6926 19.6386 54.6359 19.937 54.5264 20.2143C54.4169 20.4915 54.2571 20.7412 54.0578 20.9495C53.8584 21.1577 53.6236 21.3204 53.3676 21.4295C53.1117 21.5387 52.8389 21.5925 52.5648 21.5888L52.5648 21.5888H52.558H18.9756V21.5887L18.9688 21.5888C18.6947 21.5925 18.4219 21.5387 18.166 21.4295C17.91 21.3204 17.6752 21.1577 17.4758 20.9495C17.2764 20.7412 17.1167 20.4915 17.0072 20.2143C16.8977 19.937 16.841 19.6386 16.841 19.3365V19.3365V11.5737V11.0737H16.341H7.50352H7.00352V11.5737V89.8018V90.3018H7.50352H63.7633H64.2633V89.8018V11.5737Z" stroke="black"/>
</g>
<g filter="url(#filter1_dii_1041_7092)">
<path d="M57.3601 29.0753H14.54V33.3096H57.3601V29.0753Z" fill="#9CBFF5"/>
<path d="M15.04 29.5753H56.8601V32.8096H15.04V29.5753Z" stroke="black"/>
</g>
<g filter="url(#filter2_dii_1041_7092)">
<path d="M57.3601 38.8141H14.54V43.0483H57.3601V38.8141Z" fill="#9CBFF5"/>
<path d="M15.04 39.3141H56.8601V42.5483H15.04V39.3141Z" stroke="black"/>
</g>
<g filter="url(#filter3_dii_1041_7092)">
<path d="M57.3601 48.553H14.54V52.7872H57.3601V48.553Z" fill="#9CBFF5"/>
<path d="M15.04 49.053H56.8601V52.2872H15.04V49.053Z" stroke="black"/>
</g>
<g filter="url(#filter4_dii_1041_7092)">
<path d="M40.1187 58.2917H14.54V62.526H40.1187V58.2917Z" fill="#9CBFF5"/>
<path d="M15.04 58.7917H39.6187V62.026H15.04V58.7917Z" stroke="black"/>
</g>
<g filter="url(#filter5_dii_1041_7092)">
<path d="M47.5892 67.7836V73.3234H42.3867V78.087H47.5892V83.6268H52.1246V78.087H57.3271V73.3234H52.1246V67.7836H47.5892Z" fill="#9CBFF5"/>
<path d="M47.5892 73.8234H48.0892V73.3234V68.2836H51.6246V73.3234V73.8234H52.1246H56.8271V77.587H52.1246H51.6246V78.087V83.1268H48.0892V78.087V77.587H47.5892H42.8867V73.8234H47.5892Z" stroke="black"/>
</g>
<g filter="url(#filter6_dii_1041_7092)">
<path d="M49.957 8.32739H21.6104V16.5489H49.957V8.32739Z" fill="#9CBFF5"/>
</g>
</g>
<defs>
<filter id="filter0_dii_1041_7092" x="-2.3015" y="-2.3015" width="77.1373" height="103.393" filterUnits="userSpaceOnUse" color-interpolation-filters="sRGB">
<feFlood flood-opacity="0" result="BackgroundImageFix"/>
<feColorMatrix in="SourceAlpha" type="matrix" values="0 0 0 0 0 0 0 0 0 0 0 0 0 0 0 0 0 0 127 0" result="hardAlpha"/>
<feOffset dx="1.53434" dy="1.53434"/>
<feGaussianBlur stdDeviation="1.02289"/>
<feComposite in2="hardAlpha" operator="out"/>
<feColorMatrix type="matrix" values="0 0 0 0 0.0235294 0 0 0 0 0.478431 0 0 0 0 0.27451 0 0 0 0.3 0"/>
<feBlend mode="normal" in2="BackgroundImageFix" result="effect1_dropShadow_1041_7092"/>
<feBlend mode="normal" in="SourceGraphic" in2="effect1_dropShadow_1041_7092" result="shape"/>
<feColorMatrix in="SourceAlpha" type="matrix" values="0 0 0 0 0 0 0 0 0 0 0 0 0 0 0 0 0 0 127 0" result="hardAlpha"/>
<feOffset dx="-2.55723" dy="-2.81295"/>
<feGaussianBlur stdDeviation="1.15075"/>
<feComposite in2="hardAlpha" operator="arithmetic" k2="-1" k3="1"/>
<feColorMatrix type="matrix" values="0 0 0 0 0.0235294 0 0 0 0 0.478431 0 0 0 0 0.27451 0 0 0 0.5 0"/>
<feBlend mode="normal" in2="shape" result="effect2_innerShadow_1041_7092"/>
<feColorMatrix in="SourceAlpha" type="matrix" values="0 0 0 0 0 0 0 0 0 0 0 0 0 0 0 0 0 0 127 0" result="hardAlpha"/>
<feOffset dx="3.83584" dy="4.09156"/>
<feGaussianBlur stdDeviation="2.42937"/>
<feComposite in2="hardAlpha" operator="arithmetic" k2="-1" k3="1"/>
<feColorMatrix type="matrix" values="0 0 0 0 0.0235294 0 0 0 0 0.478431 0 0 0 0 0.27451 0 0 0 0.4 0"/>
<feBlend mode="normal" in2="effect2_innerShadow_1041_7092" result="effect3_innerShadow_1041_7092"/>
</filter>
<filter id="filter1_dii_1041_7092" x="14.0286" y="27.0295" width="46.9119" height="9.86015" filterUnits="userSpaceOnUse" color-interpolation-filters="sRGB">
<feFlood flood-opacity="0" result="BackgroundImageFix"/>
<feColorMatrix in="SourceAlpha" type="matrix" values="0 0 0 0 0 0 0 0 0 0 0 0 0 0 0 0 0 0 127 0" result="hardAlpha"/>
<feOffset dx="1.53434" dy="1.53434"/>
<feGaussianBlur stdDeviation="1.02289"/>
<feComposite in2="hardAlpha" operator="out"/>
<feColorMatrix type="matrix" values="0 0 0 0 0.298039 0 0 0 0 0.631373 0 0 0 0 0.482353 0 0 0 0.4 0"/>
<feBlend mode="normal" in2="BackgroundImageFix" result="effect1_dropShadow_1041_7092"/>
<feBlend mode="normal" in="SourceGraphic" in2="effect1_dropShadow_1041_7092" result="shape"/>
<feColorMatrix in="SourceAlpha" type="matrix" values="0 0 0 0 0 0 0 0 0 0 0 0 0 0 0 0 0 0 127 0" result="hardAlpha"/>
<feOffset dx="-0.255723" dy="-3.32439"/>
<feGaussianBlur stdDeviation="1.02289"/>
<feComposite in2="hardAlpha" operator="arithmetic" k2="-1" k3="1"/>
<feColorMatrix type="matrix" values="0 0 0 0 0.294118 0 0 0 0 0.647059 0 0 0 0 0.490196 0 0 0 1 0"/>
<feBlend mode="normal" in2="shape" result="effect2_innerShadow_1041_7092"/>
<feColorMatrix in="SourceAlpha" type="matrix" values="0 0 0 0 0 0 0 0 0 0 0 0 0 0 0 0 0 0 127 0" result="hardAlpha"/>
<feOffset dx="-0.511445" dy="1.27861"/>
<feGaussianBlur stdDeviation="1.6622"/>
<feComposite in2="hardAlpha" operator="arithmetic" k2="-1" k3="1"/>
<feColorMatrix type="matrix" values="0 0 0 0 0 0 0 0 0 0.316667 0 0 0 0 0.174921 0 0 0 1 0"/>
<feBlend mode="normal" in2="effect2_innerShadow_1041_7092" result="effect3_innerShadow_1041_7092"/>
</filter>
<filter id="filter2_dii_1041_7092" x="14.0286" y="36.7683" width="46.9119" height="9.86015" filterUnits="userSpaceOnUse" color-interpolation-filters="sRGB">
<feFlood flood-opacity="0" result="BackgroundImageFix"/>
<feColorMatrix in="SourceAlpha" type="matrix" values="0 0 0 0 0 0 0 0 0 0 0 0 0 0 0 0 0 0 127 0" result="hardAlpha"/>
<feOffset dx="1.53434" dy="1.53434"/>
<feGaussianBlur stdDeviation="1.02289"/>
<feComposite in2="hardAlpha" operator="out"/>
<feColorMatrix type="matrix" values="0 0 0 0 0.298039 0 0 0 0 0.631373 0 0 0 0 0.482353 0 0 0 0.4 0"/>
<feBlend mode="normal" in2="BackgroundImageFix" result="effect1_dropShadow_1041_7092"/>
<feBlend mode="normal" in="SourceGraphic" in2="effect1_dropShadow_1041_7092" result="shape"/>
<feColorMatrix in="SourceAlpha" type="matrix" values="0 0 0 0 0 0 0 0 0 0 0 0 0 0 0 0 0 0 127 0" result="hardAlpha"/>
<feOffset dx="-0.255723" dy="-3.32439"/>
<feGaussianBlur stdDeviation="1.02289"/>
<feComposite in2="hardAlpha" operator="arithmetic" k2="-1" k3="1"/>
<feColorMatrix type="matrix" values="0 0 0 0 0.294118 0 0 0 0 0.647059 0 0 0 0 0.490196 0 0 0 1 0"/>
<feBlend mode="normal" in2="shape" result="effect2_innerShadow_1041_7092"/>
<feColorMatrix in="SourceAlpha" type="matrix" values="0 0 0 0 0 0 0 0 0 0 0 0 0 0 0 0 0 0 127 0" result="hardAlpha"/>
<feOffset dx="-0.511445" dy="1.27861"/>
<feGaussianBlur stdDeviation="1.6622"/>
<feComposite in2="hardAlpha" operator="arithmetic" k2="-1" k3="1"/>
<feColorMatrix type="matrix" values="0 0 0 0 0 0 0 0 0 0.316667 0 0 0 0 0.174921 0 0 0 1 0"/>
<feBlend mode="normal" in2="effect2_innerShadow_1041_7092" result="effect3_innerShadow_1041_7092"/>
</filter>
<filter id="filter3_dii_1041_7092" x="14.0286" y="46.5072" width="46.9119" height="9.86015" filterUnits="userSpaceOnUse" color-interpolation-filters="sRGB">
<feFlood flood-opacity="0" result="BackgroundImageFix"/>
<feColorMatrix in="SourceAlpha" type="matrix" values="0 0 0 0 0 0 0 0 0 0 0 0 0 0 0 0 0 0 127 0" result="hardAlpha"/>
<feOffset dx="1.53434" dy="1.53434"/>
<feGaussianBlur stdDeviation="1.02289"/>
<feComposite in2="hardAlpha" operator="out"/>
<feColorMatrix type="matrix" values="0 0 0 0 0.298039 0 0 0 0 0.631373 0 0 0 0 0.482353 0 0 0 0.4 0"/>
<feBlend mode="normal" in2="BackgroundImageFix" result="effect1_dropShadow_1041_7092"/>
<feBlend mode="normal" in="SourceGraphic" in2="effect1_dropShadow_1041_7092" result="shape"/>
<feColorMatrix in="SourceAlpha" type="matrix" values="0 0 0 0 0 0 0 0 0 0 0 0 0 0 0 0 0 0 127 0" result="hardAlpha"/>
<feOffset dx="-0.255723" dy="-3.32439"/>
<feGaussianBlur stdDeviation="1.02289"/>
<feComposite in2="hardAlpha" operator="arithmetic" k2="-1" k3="1"/>
<feColorMatrix type="matrix" values="0 0 0 0 0.294118 0 0 0 0 0.647059 0 0 0 0 0.490196 0 0 0 1 0"/>
<feBlend mode="normal" in2="shape" result="effect2_innerShadow_1041_7092"/>
<feColorMatrix in="SourceAlpha" type="matrix" values="0 0 0 0 0 0 0 0 0 0 0 0 0 0 0 0 0 0 127 0" result="hardAlpha"/>
<feOffset dx="-0.511445" dy="1.27861"/>
<feGaussianBlur stdDeviation="1.6622"/>
<feComposite in2="hardAlpha" operator="arithmetic" k2="-1" k3="1"/>
<feColorMatrix type="matrix" values="0 0 0 0 0 0 0 0 0 0.316667 0 0 0 0 0.174921 0 0 0 1 0"/>
<feBlend mode="normal" in2="effect2_innerShadow_1041_7092" result="effect3_innerShadow_1041_7092"/>
</filter>
<filter id="filter4_dii_1041_7092" x="14.0286" y="56.246" width="29.6707" height="9.86015" filterUnits="userSpaceOnUse" color-interpolation-filters="sRGB">
<feFlood flood-opacity="0" result="BackgroundImageFix"/>
<feColorMatrix in="SourceAlpha" type="matrix" values="0 0 0 0 0 0 0 0 0 0 0 0 0 0 0 0 0 0 127 0" result="hardAlpha"/>
<feOffset dx="1.53434" dy="1.53434"/>
<feGaussianBlur stdDeviation="1.02289"/>
<feComposite in2="hardAlpha" operator="out"/>
<feColorMatrix type="matrix" values="0 0 0 0 0.298039 0 0 0 0 0.631373 0 0 0 0 0.482353 0 0 0 0.4 0"/>
<feBlend mode="normal" in2="BackgroundImageFix" result="effect1_dropShadow_1041_7092"/>
<feBlend mode="normal" in="SourceGraphic" in2="effect1_dropShadow_1041_7092" result="shape"/>
<feColorMatrix in="SourceAlpha" type="matrix" values="0 0 0 0 0 0 0 0 0 0 0 0 0 0 0 0 0 0 127 0" result="hardAlpha"/>
<feOffset dx="-0.255723" dy="-3.32439"/>
<feGaussianBlur stdDeviation="1.02289"/>
<feComposite in2="hardAlpha" operator="arithmetic" k2="-1" k3="1"/>
<feColorMatrix type="matrix" values="0 0 0 0 0.294118 0 0 0 0 0.647059 0 0 0 0 0.490196 0 0 0 1 0"/>
<feBlend mode="normal" in2="shape" result="effect2_innerShadow_1041_7092"/>
<feColorMatrix in="SourceAlpha" type="matrix" values="0 0 0 0 0 0 0 0 0 0 0 0 0 0 0 0 0 0 127 0" result="hardAlpha"/>
<feOffset dx="-0.511445" dy="1.27861"/>
<feGaussianBlur stdDeviation="1.6622"/>
<feComposite in2="hardAlpha" operator="arithmetic" k2="-1" k3="1"/>
<feColorMatrix type="matrix" values="0 0 0 0 0 0 0 0 0 0.316667 0 0 0 0 0.174921 0 0 0 1 0"/>
<feBlend mode="normal" in2="effect2_innerShadow_1041_7092" result="effect3_innerShadow_1041_7092"/>
</filter>
<filter id="filter5_dii_1041_7092" x="41.8753" y="65.7378" width="19.032" height="21.4692" filterUnits="userSpaceOnUse" color-interpolation-filters="sRGB">
<feFlood flood-opacity="0" result="BackgroundImageFix"/>
<feColorMatrix in="SourceAlpha" type="matrix" values="0 0 0 0 0 0 0 0 0 0 0 0 0 0 0 0 0 0 127 0" result="hardAlpha"/>
<feOffset dx="1.53434" dy="1.53434"/>
<feGaussianBlur stdDeviation="1.02289"/>
<feComposite in2="hardAlpha" operator="out"/>
<feColorMatrix type="matrix" values="0 0 0 0 0.298039 0 0 0 0 0.631373 0 0 0 0 0.482353 0 0 0 0.4 0"/>
<feBlend mode="normal" in2="BackgroundImageFix" result="effect1_dropShadow_1041_7092"/>
<feBlend mode="normal" in="SourceGraphic" in2="effect1_dropShadow_1041_7092" result="shape"/>
<feColorMatrix in="SourceAlpha" type="matrix" values="0 0 0 0 0 0 0 0 0 0 0 0 0 0 0 0 0 0 127 0" result="hardAlpha"/>
<feOffset dx="-0.255723" dy="-3.32439"/>
<feGaussianBlur stdDeviation="1.02289"/>
<feComposite in2="hardAlpha" operator="arithmetic" k2="-1" k3="1"/>
<feColorMatrix type="matrix" values="0 0 0 0 0.294118 0 0 0 0 0.647059 0 0 0 0 0.490196 0 0 0 1 0"/>
<feBlend mode="normal" in2="shape" result="effect2_innerShadow_1041_7092"/>
<feColorMatrix in="SourceAlpha" type="matrix" values="0 0 0 0 0 0 0 0 0 0 0 0 0 0 0 0 0 0 127 0" result="hardAlpha"/>
<feOffset dx="-0.511445" dy="1.27861"/>
<feGaussianBlur stdDeviation="1.6622"/>
<feComposite in2="hardAlpha" operator="arithmetic" k2="-1" k3="1"/>
<feColorMatrix type="matrix" values="0 0 0 0 0 0 0 0 0 0.316667 0 0 0 0 0.174921 0 0 0 1 0"/>
<feBlend mode="normal" in2="effect2_innerShadow_1041_7092" result="effect3_innerShadow_1041_7092"/>
</filter>
<filter id="filter6_dii_1041_7092" x="21.0989" y="6.28161" width="32.4382" height="13.8475" filterUnits="userSpaceOnUse" color-interpolation-filters="sRGB">
<feFlood flood-opacity="0" result="BackgroundImageFix"/>
<feColorMatrix in="SourceAlpha" type="matrix" values="0 0 0 0 0 0 0 0 0 0 0 0 0 0 0 0 0 0 127 0" result="hardAlpha"/>
<feOffset dx="1.53434" dy="1.53434"/>
<feGaussianBlur stdDeviation="1.02289"/>
<feComposite in2="hardAlpha" operator="out"/>
<feColorMatrix type="matrix" values="0 0 0 0 0.298039 0 0 0 0 0.631373 0 0 0 0 0.482353 0 0 0 0.4 0"/>
<feBlend mode="normal" in2="BackgroundImageFix" result="effect1_dropShadow_1041_7092"/>
<feBlend mode="normal" in="SourceGraphic" in2="effect1_dropShadow_1041_7092" result="shape"/>
<feColorMatrix in="SourceAlpha" type="matrix" values="0 0 0 0 0 0 0 0 0 0 0 0 0 0 0 0 0 0 127 0" result="hardAlpha"/>
<feOffset dx="-0.255723" dy="-3.32439"/>
<feGaussianBlur stdDeviation="1.02289"/>
<feComposite in2="hardAlpha" operator="arithmetic" k2="-1" k3="1"/>
<feColorMatrix type="matrix" values="0 0 0 0 0.294118 0 0 0 0 0.647059 0 0 0 0 0.490196 0 0 0 1 0"/>
<feBlend mode="normal" in2="shape" result="effect2_innerShadow_1041_7092"/>
<feColorMatrix in="SourceAlpha" type="matrix" values="0 0 0 0 0 0 0 0 0 0 0 0 0 0 0 0 0 0 127 0" result="hardAlpha"/>
<feOffset dx="-0.511445" dy="1.27861"/>
<feGaussianBlur stdDeviation="1.6622"/>
<feComposite in2="hardAlpha" operator="arithmetic" k2="-1" k3="1"/>
<feColorMatrix type="matrix" values="0 0 0 0 0 0 0 0 0 0.316667 0 0 0 0 0.174921 0 0 0 1 0"/>
<feBlend mode="normal" in2="effect2_innerShadow_1041_7092" result="effect3_innerShadow_1041_7092"/>
</filter>
<clipPath id="clip0_1041_7092">
<rect width="71" height="97" fill="white"/>
</clipPath>
</defs>
</svg>
