<svg width="109" height="102" viewBox="0 0 109 102" fill="none" xmlns="http://www.w3.org/2000/svg">
<g clip-path="url(#clip0_1041_7095)">
<path d="M55.9107 45.0482L55.7189 45.1983V45.4419V55.4875C55.7189 55.7613 55.6137 56.0205 55.4316 56.209C55.2514 56.3956 55.0111 56.4977 54.764 56.4991C54.5155 56.4925 54.2754 56.3875 54.0944 56.2001C53.9126 56.0119 53.8049 55.7551 53.7985 55.4822V45.3789V45.1355L53.6069 44.9853L40.6161 34.8054C40.5355 34.7168 40.4702 34.613 40.4243 34.4985C40.3745 34.3743 40.3486 34.2405 40.3486 34.105C40.3486 33.9695 40.3745 33.8357 40.4243 33.7115C40.4738 33.5882 40.5457 33.4772 40.6352 33.3843C40.8156 33.2034 41.0533 33.1053 41.2972 33.1053C41.542 33.1053 41.7806 33.2041 41.9613 33.3863L41.9862 33.4115L42.0145 33.4329L54.4872 42.8803L54.7891 43.1089L55.091 42.8803L67.5638 33.4329L67.5947 33.4095L67.6215 33.3817C67.8035 33.1933 68.0466 33.0908 68.2963 33.0908C68.5459 33.0908 68.789 33.1933 68.971 33.3817C69.1535 33.5707 69.259 33.8306 69.259 34.105C69.259 34.3686 69.1617 34.6188 68.9923 34.8056L55.9107 45.0482Z" fill="#9CBFF5" stroke="black"/>
<path d="M43.6378 72.4298H43.6379L43.6378 72.4221C43.6032 70.1532 44.2204 67.926 45.4096 66.0233C46.5986 64.1207 48.305 62.6293 50.3102 61.7356C52.3152 60.842 54.5303 60.5854 56.6752 60.9974C58.8202 61.4094 60.8011 62.472 62.3657 64.0534C63.9304 65.635 65.0079 67.6641 65.459 69.8843C65.9101 72.1045 65.7138 74.4133 64.8957 76.5171C64.0776 78.6207 62.6754 80.4227 60.8696 81.6962C59.0647 82.9691 56.9373 83.6574 54.7569 83.676H41.4092C41.9523 83.253 42.4188 82.7297 42.7832 82.1299C43.3747 81.1564 43.6716 80.0244 43.6378 78.8779V72.4298Z" fill="#9CBFF5" stroke="black"/>
<path d="M58.6026 86.8251L57.6473 89.7846L57.5242 89.7853L51.841 89.8161L50.8227 86.6976L50.5878 85.9781L50.0182 86.4764L50.3474 86.8528L50.0182 86.4765L50.0181 86.4766L50.0177 86.4769L50.0164 86.478L50.0115 86.4823L49.9929 86.4986L49.9234 86.56C49.8638 86.6128 49.7791 86.6882 49.6779 86.7793C49.4758 86.9611 49.2068 87.2066 48.9417 87.459C48.6789 87.7092 48.4109 87.9747 48.2155 88.1945C48.1203 88.3016 48.0271 88.4147 47.9607 88.5187C47.9295 88.5677 47.8863 88.6419 47.8593 88.7294C47.8404 88.7908 47.7763 89.0287 47.9501 89.2447C47.9908 89.2952 48.0846 89.3898 48.1778 89.4828C48.2841 89.5888 48.4264 89.7288 48.5915 89.8901C48.922 90.213 49.3479 90.6252 49.7683 91.0309C50.1888 91.4367 50.6046 91.8365 50.9151 92.1348L51.0614 92.2753L49.2042 94.1188L48.8694 94.4511L49.1817 94.8047L54.3838 100.694L54.7635 101.123L55.1375 100.689L60.0962 94.9257L60.3978 94.5752L60.0719 94.2472L58.2816 92.4454C58.3278 92.404 58.3776 92.3593 58.4304 92.3117C58.7379 92.0348 59.1512 91.6604 59.5734 91.2708C59.9949 90.8818 60.4282 90.4751 60.7746 90.1345C60.9475 89.9645 61.1022 89.8077 61.2242 89.6759C61.3338 89.5574 61.4525 89.4223 61.5188 89.3079C61.6679 89.0506 61.6006 88.789 61.5418 88.6441C61.4787 88.4888 61.3772 88.343 61.2768 88.2188C61.0724 87.9659 60.7852 87.6973 60.5108 87.4615C60.2317 87.2218 59.946 86.9993 59.7315 86.8377C59.6239 86.7566 59.5333 86.6902 59.4693 86.6438C59.4374 86.6206 59.412 86.6024 59.3944 86.5899L59.374 86.5754L59.3685 86.5715L59.3669 86.5704L59.3664 86.5701L59.3663 86.5699C59.3662 86.5699 59.3662 86.5699 59.0784 86.9787L59.3662 86.5699L58.8111 86.1791L58.6026 86.8251ZM40.6953 88.9707C42.6389 86.9645 45.2679 85.8412 48.005 85.8412H61.36C64.094 85.8412 66.7197 86.9653 68.6584 88.9722C70.5976 90.9796 71.69 93.7059 71.69 96.5521V101.5H37.6445V96.5527C37.6524 93.7037 38.7514 90.9774 40.6953 88.9707Z" fill="#9CBFF5" stroke="black"/>
<path d="M52.4927 90.813L56.8378 90.7891L54.6536 97.5236L52.4927 90.813Z" fill="#9CBFF5" stroke="black"/>
<path d="M60.9952 89.0572C61.269 88.5848 58.9874 86.9788 58.9874 86.9788L54.7588 100.363L59.7783 94.4737L57.588 92.2693C57.588 92.2693 60.8431 89.3406 60.9952 89.0572Z" fill="white"/>
<path d="M54.7587 100.363L50.4388 86.9788C50.4388 86.9788 48.1572 88.5848 48.431 89.0572C48.7048 89.5295 51.7165 92.3952 51.7165 92.3952L49.4958 94.5996L54.7587 100.363Z" fill="white"/>
<path d="M74.4541 36.2464L74.4541 36.245C74.4503 34.8336 74.7156 33.4356 75.2344 32.1313C75.7532 30.827 76.515 29.6427 77.4755 28.6456C78.436 27.6486 79.5761 26.8585 80.83 26.3198C82.084 25.7811 83.4276 25.504 84.7842 25.504H98.1392C100.881 25.504 103.515 26.6315 105.459 28.6442C107.404 30.6576 108.5 33.3919 108.5 36.2464V41.1944H74.4541L74.4541 36.2464ZM95.7663 40.2734H96.1817L96.2578 39.865L98.7524 26.4813L98.8627 25.8896H98.2609H84.7538H84.1546L84.2618 26.4792L86.726 40.0204L86.8007 40.4309H87.2179H88.8302H89.2621L89.3249 40.0036L90.6634 30.9027L90.6875 30.7388L90.6091 30.593L89.667 28.8421H93.2964L92.5173 30.455L92.4505 30.5933L92.4729 30.7452L93.8114 39.8462L93.8742 40.2734H94.3061H95.7663Z" fill="#9CBFF5" stroke="black"/>
<path d="M92.8159 30.6724L94.3065 39.7734H95.9189L98.4134 26.2322H84.6934L87.1575 39.7734H88.7698L90.1084 30.6724L88.8307 28.3421H94.0936L92.7855 30.8299L92.8159 30.6724Z" fill="white"/>
<path d="M82.2712 18.3218C81.0572 16.4317 80.4113 14.2094 80.417 11.9364C80.4248 8.89507 81.5975 5.98434 83.6728 3.84168C85.7476 1.6996 88.5545 0.49999 91.4772 0.5C93.662 0.500008 95.7991 1.17096 97.6182 2.43007C99.4375 3.68935 100.858 5.48094 101.696 7.57997C102.534 9.67914 102.752 11.9895 102.322 14.218C101.892 16.4464 100.833 18.4903 99.2815 20.0916C97.7306 21.6928 95.7578 22.7796 93.6137 23.2173C91.4698 23.655 89.2485 23.4245 87.2301 22.5542C85.2116 21.6838 83.4851 20.2118 82.2712 18.3218Z" fill="#9CBFF5" stroke="black"/>
<path d="M21.8122 40.2734H22.2276L22.3037 39.8651L24.8287 26.3238L24.939 25.7322H24.3371H10.7388H10.1382L10.247 26.3228L12.7416 39.864L12.817 40.2734H13.2333H21.8122ZM3.54056 28.6442C5.48496 26.6315 8.11837 25.504 10.8605 25.504H24.3335C27.0491 25.5444 29.6441 26.6891 31.5565 28.6968C33.4702 30.706 34.5458 33.4178 34.5455 36.2463V41.1944H0.5V36.2464C0.5 33.3919 1.59559 30.6576 3.54056 28.6442Z" fill="#9CBFF5" stroke="black"/>
<path d="M18.8912 30.6724L20.2298 39.7734H21.8117L24.3367 26.2322H10.7383L13.2328 39.7734H14.8452L16.1533 30.6724L14.906 28.3421H20.1385L18.8304 30.8299L18.8912 30.6724Z" fill="white"/>
<path d="M15.4246 39.2738L16.6161 31.1729H17.0425L16.6572 30.4402L15.7344 28.6851H19.3112L18.3884 30.4402L18.0031 31.1729H18.4599L19.6514 39.2738H15.4246Z" fill="#9CBFF5" stroke="black"/>
<path d="M89.5067 39.3934L90.6981 31.2925H91.1245L90.7392 30.5598L89.8164 28.8047H93.3933L92.4704 30.5598L92.0851 31.2925H92.5419L93.7334 39.3934H89.5067Z" fill="#9CBFF5" stroke="black"/>
<path d="M8.45343 18.3041C7.23536 16.4212 6.58405 14.2044 6.58398 11.9352C6.58389 8.91255 7.73796 6.01567 9.78962 3.87493C11.8407 1.73476 14.6221 0.523791 17.5265 0.499991C19.7077 0.482118 21.8463 1.13522 23.6712 2.37856C25.4962 3.62206 26.9259 5.40055 27.7762 7.49038C28.6266 9.58034 28.8584 11.8857 28.4414 14.1132C28.0245 16.3406 26.9782 18.3874 25.4378 19.9947C23.8976 21.6018 21.9331 22.697 19.7945 23.1442C17.656 23.5914 15.4373 23.3712 13.4189 22.5106C11.4003 21.65 9.67138 20.1869 8.45343 18.3041Z" fill="#9CBFF5" stroke="black"/>
</g>
<defs>
<clipPath id="clip0_1041_7095">
<rect width="109" height="102" fill="white"/>
</clipPath>
</defs>
</svg>
