<svg width="111" height="90" viewBox="0 0 111 90" fill="none" xmlns="http://www.w3.org/2000/svg">
<g clip-path="url(#clip0_1041_7100)">
<path d="M91.9063 48.6847C96.2196 51.8943 100.653 55.1932 106.894 55.5149V72.5356V73.3537C103.823 73.6158 100.782 74.1633 97.8107 74.9894L97.7685 75.0012L97.7274 75.0166L96.91 75.3231C84.9597 78.2659 59.5522 84.7258 47.1663 87.8949H47.1105H47.0585L47.0067 87.9003C46.544 87.9485 46.0774 87.9485 45.6147 87.9003L45.5663 87.8952L45.5176 87.8949C44.7528 87.8898 43.9948 87.751 43.2778 87.4848L43.1094 87.4223H42.9298H42.7818L6.47341 61.0752L6.47255 61.0746L4.87384 59.9119L4.81477 59.8689L4.75009 59.835C4.23644 59.5657 3.76611 59.2208 3.35481 58.8118L3.34954 58.8066L3.34419 58.8014C2.80663 58.2826 2.37948 57.6605 2.08839 56.9725C1.79731 56.2845 1.64828 55.5447 1.65028 54.7976L1.65031 54.7883L1.65016 54.7789C1.62711 53.3464 2.14197 51.9573 3.09309 50.8858C4.04291 49.8159 5.35886 49.1403 6.78176 48.9921C7.11168 48.9623 7.44352 48.9609 7.77363 48.9878L8.91322 49.2295L9.01583 49.2513H9.12073H9.76223C9.99178 49.3296 10.2156 49.424 10.4319 49.5339L11.0092 49.8546L14.9883 52.8658L15.0201 52.8899L15.0538 52.9114L38.3566 67.7802L38.5 67.8717L38.6656 67.9106C39.5141 68.1101 40.388 68.1795 41.2573 68.1163L41.3487 68.1096L41.4374 68.0865L56.0729 64.2654H56.308H56.4403L56.568 64.231C57.1007 64.0876 57.6136 63.9458 58.1173 63.8065C59.4305 63.4433 60.6809 63.0976 62.0546 62.7866L62.0564 62.7862L67.9458 61.4411L68.0797 61.4105L68.2004 61.3449C69.5314 60.622 70.6028 59.5005 71.264 58.1378C71.9253 56.7751 72.1433 55.2395 71.8875 53.7466C71.6317 52.2536 70.9149 50.8782 69.8377 49.8134C68.7605 48.7485 67.3769 48.0476 65.8811 47.8091L65.8029 47.7966H65.7236H63.7665C64.4625 46.8935 64.8437 45.7822 64.8437 44.6341C64.8437 43.486 64.4625 42.3746 63.7665 41.4716H66.5598H66.5724H66.5849H66.5975H66.6101H66.6227H66.6354H66.648H66.6606H66.6733H66.6859H66.6986H66.7113H66.7239H66.7366H66.7493H66.762H66.7748H66.7875H66.8002H66.813H66.8257H66.8385H66.8513H66.8641H66.8768H66.8896H66.9025H66.9153H66.9281H66.9409H66.9538H66.9667H66.9795H66.9924H67.0053H67.0182H67.0311H67.044H67.0569H67.0698H67.0828H67.0957H67.1087H67.1217H67.1346H67.1476H67.1606H67.1736H67.1867H67.1997H67.2127H67.2258H67.2388H67.2519H67.2649H67.278H67.2911H67.3042H67.3173H67.3304H67.3436H67.3567H67.3698H67.383H67.3962H67.4093H67.4225H67.4357H67.4489H67.4621H67.4753H67.4886H67.5018H67.5151H67.5283H67.5416H67.5549H67.5682H67.5815H67.5948H67.6081H67.6214H67.6347H67.6481H67.6614H67.6748H67.6882H67.7015H67.7149H67.7283H67.7417H67.7552H67.7686H67.782H67.7955H67.8089H67.8224H67.8359H67.8494H67.8629H67.8764H67.8899H67.9034H67.9169H67.9305H67.944H67.9576H67.9712H67.9847H67.9983H68.0119H68.0255H68.0391H68.0528H68.0664H68.0801H68.0937H68.1074H68.1211H68.1347H68.1484H68.1621H68.1758H68.1896H68.2033H68.217H68.2308H68.2446H68.2583H68.2721H68.2859H68.2997H68.3135H68.3273H68.3412H68.355H68.3688H68.3827H68.3966H68.4104H68.4243H68.4382H68.4521H68.466H68.48H68.4939H68.5078H68.5218H68.5358H68.5497H68.5637H68.5777H68.5917H68.6057H68.6197H68.6338H68.6478H68.6619H68.6759H68.69H68.9164H68.9734H68.9877H69.002H69.0162H69.0305H69.0449H69.0592H69.0879H69.1453H69.1597H69.1741H69.2029H69.2607H69.2896H69.3041H69.3186H69.3767H69.6106H69.6401H69.6695H69.6843H69.699H69.7138H69.7286H69.8471H70.0861H74.2628C79.6433 41.5146 84.8593 43.3314 89.1022 46.6405L89.1229 46.6566L89.1444 46.6716C90.0705 47.3187 90.9856 47.9997 91.9063 48.6847Z" fill="#9CBFF5" stroke="black" stroke-width="2"/>
<path d="M69.3346 20.8366C68.6416 20.9555 66.5202 21.4992 63.832 22.2094C61.7484 22.76 59.2802 23.4227 56.7775 24.0946C56.056 24.2883 55.3316 24.4828 54.6128 24.6756H54.381H54.2487L54.121 24.71C53.4555 24.8891 52.8211 25.0658 52.1967 25.2397C51.0153 25.5686 49.8697 25.8876 48.617 26.1949L48.6076 26.1972L48.5983 26.1997L42.8544 27.7265L42.7447 27.7557L42.6442 27.8088C41.4661 28.4311 40.4855 29.3705 39.8133 30.5208C39.143 31.6678 38.8058 32.9788 38.8395 34.3067C38.8479 36.0295 39.4633 37.6944 40.5777 39.0086C41.6947 40.3259 43.2412 41.2061 44.9441 41.494L45.0269 41.508H45.1108H59.8569C60.6293 41.5909 61.3451 41.9537 61.8689 42.5287C62.4024 43.1144 62.6981 43.8782 62.6981 44.6705C62.6981 45.4627 62.4024 46.2265 61.8689 46.8122C61.3451 47.3873 60.6293 47.7501 59.8569 47.833H44.1292H44.1167H44.1041H44.0915H44.0789H44.0663H44.0537H44.041H44.0284H44.0158H44.0031H43.9904H43.9778H43.9651H43.9524H43.9397H43.927H43.9143H43.9015H43.8888H43.876H43.8633H43.8505H43.8377H43.825H43.8122H43.7994H43.7866H43.7737H43.7609H43.7481H43.7352H43.7224H43.7095H43.6966H43.6837H43.6708H43.6579H43.645H43.6321H43.6192H43.6062H43.5933H43.5803H43.5673H43.5544H43.5414H43.5284H43.5154H43.5024H43.4893H43.4763H43.4633H43.4502H43.4371H43.4241H43.411H43.3979H43.3848H43.3717H43.3586H43.3455H43.3323H43.3192H43.306H43.2929H43.2797H43.2665H43.2533H43.2401H43.2269H43.2137H43.2004H43.1872H43.1739H43.1607H43.1474H43.1341H43.1209H43.1076H43.0943H43.0809H43.0676H43.0543H43.0409H43.0276H43.0142H43.0009H42.9875H42.9741H42.9607H42.9473H42.9338H42.9204H42.907H42.8935H42.8801H42.8666H42.8531H42.8397H42.8262H42.8127H42.7991H42.7856H42.7721H42.7585H42.745H42.7314H42.7179H42.7043H42.6907H42.6771H42.6635H42.6499H42.6362H42.6226H42.609H42.5953H42.5816H42.568H42.5543H42.5406H42.5269H42.5132H42.4994H42.4857H42.472H42.4582H42.4445H42.4307H42.4169H42.4031H42.3893H42.3755H42.3617H42.3479H42.334H42.3202H42.3063H42.2925H42.2786H42.2647H42.2508H42.2369H42.223H42.2091H42.1951H42.1812H42.1672H42.1533H42.1393H42.1253H42.1113H42.0973H42.0833H42.0693H42.0553H42.0412H42.0272H42.0131H41.999H41.985H41.9709H41.9568H41.9427H41.9285H41.9144H41.9003H41.8861H41.872H41.8578H41.8436H41.8295H41.8153H41.8011H41.7868H41.7726H41.7584H41.7441H41.7299H41.7156H41.7013H41.6871H41.6728H41.6585H41.6442H41.6298H41.6155H41.6012H41.5868H41.5725H41.5581H41.5437H41.5293H41.5149H41.5005H41.4861H41.4717H41.4572H41.4428H41.4283H41.4138H41.3994H41.3849H41.3704H41.3559H41.3414H41.3268H41.3123H41.2977H41.2832H41.2686H41.254H41.2395H41.2249H41.2103H41.1956H41.181H41.1664H41.1517H41.1371H41.1224H41.1077H41.0931H41.0784H41.0637H41.0489H41.0342H41.0195H41.0047H40.99H40.9752H40.9605H40.9457H40.9309H40.9161H40.9013H40.8864H40.8716H40.8568H40.8419H40.827H40.8122H40.7973H40.7824H40.7675H40.7526H40.7377H40.7227H40.7078H40.6928H40.6779H40.6629H40.6479H40.6329H40.6179H40.6029H40.5879H40.5729H40.5578H40.5428H40.5277H40.5126H40.4975H40.4824H40.4673H40.4522H40.4371H40.422H40.4068H40.3917H40.3765H40.3614H40.3462H40.331H40.3158H40.3006H40.2853H40.2701H40.2549H40.2396H40.2243H40.2091H40.1938H40.1785H40.1632H40.1479H40.1326H40.1172H40.1019H40.0865H40.0712H40.0558H40.0404H40.025H40.0096H39.9942H39.9788H39.9633H39.9479H39.9324H39.917H39.9015H39.886H39.8705H39.855H39.8395H39.824H39.8084H39.7929H39.7773H39.7618H39.7462H39.7306H39.715H39.6994H39.6838H39.6682H39.6525H39.6369H39.6212H39.6055H39.5899H39.5742H39.5585H39.5428H39.5271H39.5113H39.4956H39.4798H39.4641H39.4483H39.4325H39.4167H39.4009H39.3851H39.3693H39.3535H39.3376H39.3218H39.3059H39.29H39.2742H39.2583H39.2424H39.2264H39.2105H39.1946H39.1786H39.1627H39.1467H39.1307H39.1148H39.0988H39.0828H39.0667H39.0507H39.0347H39.0186H39.0026H38.9865H38.9704H38.9543H38.9382H38.9221H38.906H38.8899H38.8737H38.8576H38.8414H38.8253H38.8091H38.7929H38.7767H38.7605H38.7442H38.728H38.7118H38.6955H38.6792H38.663H38.6467H38.6304H38.6141H38.5978H38.5814H38.5651H38.5488H38.5324H38.516H38.4996H38.4833H38.4669H38.4504H38.434H38.4176H38.4012H38.3847H38.3682H38.3518H38.3353H38.3188H38.3023H38.2858H38.2692H38.2527H38.2362H38.2196H38.203H38.1865H38.1699H38.1533H38.1367H38.12H38.1034H38.0868H38.0701H38.0535H38.0368H38.0201H38.0034H37.9867H37.97H37.9533H37.9365H37.9198H37.903H37.8863H37.8695H37.8527H37.8359H37.8191H37.8023H37.7854H37.7686H37.7518H37.7349H37.718H37.7011H37.6842H37.6673H37.6504H37.6335H37.6166H37.5996H37.5827H37.5657H37.5487H37.5317H37.5147H37.4977H37.4807H37.4637H37.4466H37.4296H37.4125H37.3954H37.3783H37.3612H37.3441H37.327H37.3099H37.2928H37.2756H37.2585H37.2413H37.2241H37.2069H37.1897H37.1725H37.1553H37.138H37.1208H37.1035H37.0863H37.069H37.0517H37.0344H37.0171H36.9998H36.9825H36.9651H36.9478H36.9304H36.913H36.8956H36.8783H36.8608H36.8434H36.826H36.8086H36.7911H36.7737H36.7562H36.7387H36.7212H36.7037H36.6862H36.6687H36.6511H36.6336H36.616H36.5985H36.5809H36.5633H36.5457H36.5281H36.5105H36.4929H36.4752H36.4576H36.4399H36.4272C31.043 47.7798 25.8269 45.9505 21.5887 42.6292L21.5671 42.6122L21.5446 42.5965C20.6185 41.9495 19.7034 41.2685 18.7827 40.5835C14.4694 37.3739 10.0359 34.075 3.79492 33.7533V16.5508V15.7328C6.86626 15.4706 9.90721 14.9231 12.8783 14.097L12.9206 14.0852L12.9616 14.0698L13.7791 13.7633C25.7378 10.8184 51.1774 4.35009 63.741 1.00139C64.1847 0.974881 64.6296 0.976891 65.0731 1.00743L65.0753 1.00758C65.8608 1.05988 66.6306 1.25232 67.3483 1.57582L67.5443 1.66416H67.7592H67.9092L104.288 27.8658L104.292 27.8685L105.888 29.0291L105.947 29.0721L106.012 29.106C106.525 29.3753 106.996 29.7202 107.407 30.1292L107.412 30.1344L107.418 30.1396C107.955 30.6584 108.382 31.2805 108.673 31.9685C108.964 32.6565 109.113 33.3963 109.111 34.1434V34.1444C109.109 35.5755 108.571 36.9538 107.603 38.0079C106.635 39.0619 105.307 39.7151 103.881 39.8389L103.877 39.8393C103.526 39.8713 103.173 39.8713 102.823 39.8393L102.777 39.8351H102.732H101.823H101.765L101.708 39.8418C101.534 39.8619 101.358 39.8647 101.183 39.8499C100.959 39.7788 100.742 39.684 100.538 39.567L100.538 39.5669L100.527 39.5611L99.925 39.2266L95.7565 36.208L95.7361 36.1933L95.715 36.1796L72.3395 20.9837L72.1672 20.8717L71.9648 20.8367C71.0945 20.6863 70.2049 20.6863 69.3346 20.8366ZM69.3346 20.8366C69.3344 20.8366 69.3342 20.8367 69.3339 20.8367L69.5042 21.8221L69.3352 20.8365C69.335 20.8365 69.3348 20.8365 69.3346 20.8366ZM110.111 34.146C110.109 35.8271 109.476 37.4462 108.339 38.6843C107.202 39.9224 105.642 40.6897 103.968 40.8351C103.556 40.8727 103.143 40.8727 102.732 40.8351H101.823C101.545 40.8673 101.264 40.8673 100.987 40.8351L110.111 34.146ZM110.111 34.146C110.114 33.2642 109.938 32.391 109.594 31.5789M110.111 34.146L109.594 31.5789M109.594 31.5789C109.251 30.7667 108.746 30.0324 108.112 29.42L109.594 31.5789Z" fill="#9CBFF5" stroke="black" stroke-width="2"/>
</g>
<defs>
<clipPath id="clip0_1041_7100">
<rect width="109.389" height="89.0305" fill="white" transform="translate(0.650391 0.00976562)"/>
</clipPath>
</defs>
</svg>
